<svg width="64" height="64" viewBox="0 0 64 64" fill="none" xmlns="http://www.w3.org/2000/svg">
<path d="M32.0577 0.239746C14.4196 0.239746 0.116943 14.7836 0.116943 32.7258C0.116943 47.0792 9.26894 59.2566 21.96 63.5523C23.5563 63.853 24.1423 62.8475 24.1423 61.9895C24.1423 61.2148 24.1127 58.6557 24.099 55.9411C15.213 57.9063 13.338 52.1081 13.338 52.1081C11.885 48.3531 9.79152 47.3547 9.79152 47.3547C6.89354 45.3384 10.01 45.3798 10.01 45.3798C13.2174 45.6085 14.9062 48.7276 14.9062 48.7276C17.755 53.6941 22.3784 52.2582 24.201 51.4282C24.4877 49.329 25.3155 47.8948 26.2289 47.0841C19.1345 46.2626 11.6766 43.477 11.6766 31.0291C11.6766 27.4823 12.9243 24.5843 14.9676 22.3092C14.636 21.4904 13.5427 18.1868 15.277 13.712C15.277 13.712 17.9592 12.8389 24.063 17.042C26.6108 16.3222 29.3433 15.9612 32.0577 15.9488C34.7722 15.9612 37.5067 16.3222 40.0593 17.042C46.1557 12.8389 48.8342 13.712 48.8342 13.712C50.5727 18.1868 49.4789 21.4904 49.1473 22.3092C51.1953 24.5843 52.4346 27.4823 52.4346 31.0291C52.4346 43.5066 44.9624 46.254 37.85 47.0583C38.9956 48.0664 40.0164 50.0434 40.0164 53.0743C40.0164 57.4205 39.9794 60.9189 39.9794 61.9895C39.9794 62.854 40.5544 63.867 42.1734 63.548C54.8576 59.2475 63.9979 47.0744 63.9979 32.7258C63.9979 14.7836 49.6974 0.239746 32.0577 0.239746Z" fill="white"/>
<path d="M12.2145 46.8828C12.1442 47.0447 11.8945 47.0926 11.6671 46.9818C11.4354 46.8758 11.3053 46.6558 11.3804 46.4938C11.4492 46.3276 11.6994 46.2819 11.9305 46.3922C12.1627 46.4987 12.2949 46.7209 12.2145 46.8828Z" fill="white"/>
<path d="M13.5082 48.3505C13.3559 48.4941 13.0581 48.4274 12.8561 48.2004C12.6471 47.9739 12.608 47.6711 12.7624 47.5253C12.9195 47.3816 13.2083 47.4489 13.4178 47.6754C13.6267 47.9045 13.6674 48.2052 13.5082 48.3505Z" fill="white"/>
<path d="M14.7676 50.2216C14.5719 50.3598 14.2519 50.2302 14.0541 49.9413C13.8584 49.6524 13.8584 49.306 14.0583 49.1672C14.2567 49.0284 14.5719 49.1532 14.7724 49.4399C14.9675 49.7331 14.9675 50.0801 14.7676 50.2216Z" fill="white"/>
<path d="M16.493 52.0292C16.3179 52.2256 15.945 52.1729 15.6721 51.905C15.3928 51.643 15.3151 51.2713 15.4907 51.0749C15.6679 50.878 16.0429 50.9334 16.3179 51.1992C16.5951 51.4606 16.6797 51.835 16.493 52.0292Z" fill="white"/>
<path d="M18.8732 53.0787C18.796 53.3332 18.4368 53.4488 18.075 53.3407C17.7138 53.2293 17.4774 52.9313 17.5503 52.6741C17.6255 52.4181 17.9862 52.2976 18.3506 52.4132C18.7113 52.5241 18.9483 52.8199 18.8732 53.0787Z" fill="white"/>
<path d="M21.4871 53.2735C21.4961 53.5414 21.1893 53.7635 20.8095 53.7678C20.4276 53.777 20.1187 53.5602 20.1145 53.2966C20.1145 53.026 20.4144 52.806 20.7963 52.7995C21.1761 52.792 21.4871 53.0072 21.4871 53.2735Z" fill="white"/>
<path d="M23.9197 52.8519C23.9652 53.1134 23.7012 53.3818 23.3241 53.4528C22.9533 53.5222 22.6101 53.3608 22.563 53.1015C22.517 52.8336 22.7857 52.5652 23.1559 52.4958C23.5336 52.4291 23.8716 52.5862 23.9197 52.8519Z" fill="white"/>
</svg>
