<svg width="64" height="64" viewBox="0 0 64 64" fill="none" xmlns="http://www.w3.org/2000/svg">
<path d="M40.1367 9.37038C40.8301 12.7307 43.4694 15.234 46.621 15.234C50.3004 15.234 53.2834 11.8237 53.2834 7.61701C53.2834 3.41033 50.3004 0 46.621 0C43.4038 0 40.7207 2.60685 40.096 6.07432C34.7081 6.73496 30.5007 11.9594 30.5007 18.2908C30.5007 18.3051 30.5007 18.3158 30.5007 18.3301C24.6411 18.6122 19.2906 20.5191 15.0427 23.5295C13.4653 22.1332 11.485 21.3012 9.33607 21.3012C4.17921 21.3012 0 26.0792 0 31.975C0 36.2531 2.19893 39.9384 5.3755 41.6418C5.68472 54.0333 17.4946 64 32.0219 64C46.5491 64 58.3746 54.0225 58.6682 41.6204C61.8198 39.9063 64 36.2317 64 31.9786C64 26.0828 59.8208 21.3048 54.6639 21.3048C52.5244 21.3048 50.5534 22.1297 48.9792 23.5152C44.6938 20.4834 39.2839 18.5765 33.365 18.323C33.365 18.3122 33.365 18.3051 33.365 18.2944C33.365 13.7592 36.3135 9.99531 40.1367 9.37753V9.37038ZM14.6678 38.7492C14.824 34.8783 17.0729 31.9072 19.6873 31.9072C22.3016 31.9072 24.3006 35.0461 24.1445 38.9171C23.9883 42.7881 22.0361 44.1951 19.4186 44.1951C16.8012 44.1951 14.5117 42.6202 14.6678 38.7492ZM44.3596 31.9072C46.9771 31.9072 49.226 34.8783 49.379 38.7492C49.5352 42.6202 47.2426 44.1951 44.6282 44.1951C42.0139 44.1951 40.0586 42.7917 39.9024 38.9171C39.7462 35.0461 41.7421 31.9072 44.3596 31.9072ZM41.2486 47.7054C41.739 47.7625 42.0513 48.3446 41.8608 48.866C40.2522 53.2619 36.4541 56.3509 32.0219 56.3509C27.5897 56.3509 23.7946 53.2619 22.1829 48.866C21.9924 48.3446 22.3047 47.7625 22.7951 47.7054C25.6687 47.3733 28.7766 47.1912 32.0219 47.1912C35.2672 47.1912 38.3719 47.3733 41.2486 47.7054Z" fill="white"/>
</svg>
