<svg width="64" height="64" viewBox="0 0 64 64" fill="none" xmlns="http://www.w3.org/2000/svg">
<path fill-rule="evenodd" clip-rule="evenodd" d="M52.7429 11.8132C53.4019 11.5359 54.1232 11.4402 54.8317 11.5362C55.5402 11.6322 56.21 11.9164 56.7714 12.3591C57.3328 12.8018 57.7653 13.3869 58.0239 14.0535C58.2825 14.72 58.3576 15.4437 58.2416 16.1492L52.1936 52.8346C51.6069 56.3732 47.7242 58.4026 44.4789 56.6399C41.7642 55.1652 37.7322 52.8932 34.1056 50.5226C32.2922 49.3359 26.7376 45.5359 27.4202 42.8319C28.0069 40.5199 37.3402 31.8319 42.6736 26.6666C44.7669 24.6372 43.8122 23.4666 41.3402 25.3332C35.1989 29.9679 25.3456 37.0159 22.0869 38.9999C19.2122 40.7492 17.7136 41.0479 15.9216 40.7492C12.6522 40.2052 9.62024 39.3626 7.14558 38.3359C3.80158 36.9492 3.96424 32.3519 7.14291 31.0132L52.7429 11.8132Z" fill="#D0D5DD"/>
</svg>
